<svg xmlns="http://www.w3.org/2000/svg" version="1.1" xmlns:xlink="http://www.w3.org/1999/xlink" xmlns:svgjs="http://svgjs.com/svgjs" width="16" height="16" x="0" y="0" viewBox="0 0 256 256" style="enable-background:new 0 0 512 512" xml:space="preserve" class=""><g><g><g><circle cx="128" cy="128" fill="#1b1b1b" r="124" data-original="#8852a8" class=""></circle></g><g><path d="m252 128c0 68.48-55.52 124-124 124-2.23 0-4.44-.06-6.64-.18 65.39-3.45 117.35-57.57 117.35-123.82s-51.96-120.37-117.35-123.82c2.2-.12 4.41-.18 6.64-.18 68.48 0 124 55.52 124 124z" fill="#000000" data-original="#6a348a" class=""></path></g><g><path d="m137.54 251.64c-3.15.24-6.33.36-9.54.36-68.48 0-124-55.52-124-124s55.52-124 124-124c3.21 0 6.39.12 9.54.36-63.99 4.91-114.4 58.39-114.4 123.64s50.41 118.73 114.4 123.64z" fill="#2b2b2b" data-original="#a670c6" class=""></path></g><g><path d="m128 254c-69.477 0-126-56.523-126-126s56.523-126 126-126 126 56.523 126 126-56.523 126-126 126zm0-248c-67.271 0-122 54.729-122 122s54.729 122 122 122 122-54.729 122-122-54.729-122-122-122z" fill="#198cff" data-original="#690589" class=""></path></g><g><path d="m23.267 130.813c-1.05 0-1.931-.818-1.995-1.881-.247-4.134-.13-8.304.346-12.394.128-1.097 1.127-1.89 2.218-1.755 1.097.127 1.883 1.12 1.756 2.218-.449 3.858-.559 7.793-.326 11.693.066 1.102-.775 2.05-1.877 2.115-.041.002-.082.004-.122.004z" fill="#198cff" data-original="#690589" class=""></path></g><g><circle cx="128" cy="205.532" fill="#007cf9" r="15.452" data-original="#fcc24c" class=""></circle></g><g><path d="m132.16 220.41c-1.32.37-2.72.57-4.16.57-8.53 0-15.45-6.91-15.45-15.45 0-8.53 6.92-15.45 15.45-15.45 1.44 0 2.84.2 4.16.57-6.52 1.81-11.3 7.79-11.3 14.88 0 7.1 4.78 13.07 11.3 14.88z" fill="#03478b" data-original="#fce06a" class=""></path></g><g><path d="m123.843 220.41c1.32.37 2.72.57 4.16.57 8.53 0 15.45-6.91 15.45-15.45 0-8.53-6.92-15.45-15.45-15.45-1.44 0-2.84.2-4.16.57 6.52 1.81 11.3 7.79 11.3 14.88 0 7.1-4.78 13.07-11.3 14.88z" fill="#03478b" data-original="#dea42e" class=""></path></g><g><path d="m128 222.983c-9.623 0-17.452-7.829-17.452-17.452s7.829-17.452 17.452-17.452 17.452 7.829 17.452 17.452-7.829 17.452-17.452 17.452zm0-30.904c-7.418 0-13.452 6.034-13.452 13.452s6.035 13.452 13.452 13.452 13.452-6.034 13.452-13.452-6.035-13.452-13.452-13.452z" fill="#198cff" data-original="#690589" class=""></path></g><g><path d="m129.43 175.76c-7.732 0-14-6.268-14-14v-22.027c0-10.732 8.777-19.924 19.509-19.898 16.532.04 29.965-13.528 29.702-30.111-.258-16.282-13.969-29.155-30.253-29.155h-2.566c-13.056 0-24.167 8.487-28.106 20.235-1.894 5.648-7.26 9.398-13.217 9.398-9.538 0-16.353-9.353-13.302-18.39 7.692-22.79 29.273-39.243 54.625-39.243h2.254c31.889 0 58.436 25.501 58.568 57.389.121 29.029-21.334 53.165-49.215 57.263v14.538c.001 7.733-6.267 14.001-13.999 14.001z" fill="#007cf9" data-original="#fcc24c" class=""></path></g><g><path d="m192.64 89.96c.13 29.03-21.33 53.16-49.21 57.26v14.112c0 7.889-6.457 14.613-14.344 14.424-1.516-.036-2.969-.312-4.326-.796 5.43-1.92 9.33-7.11 9.33-13.2v-8.5c0-3.09 2.147-5.722 5.148-6.456 25.329-6.2 44.174-29.628 44.062-56.844-.13-30.7-24.73-55.48-55.01-57.28 1.17-.07 2.34-.11 3.53-.11h2.26c31.89 0 58.43 25.5 58.56 57.39z" fill="#03478b" data-original="#dea42e" class=""></path></g><g><path d="m88.36 71.81c-.5 1.49-.74 2.98-.74 4.44 0 5.55 3.41 10.61 8.46 12.8-1.73.74-3.62 1.15-5.58 1.15-7.97 0-14.04-6.53-14.04-13.95 0-1.46.24-2.95.74-4.44 7.69-22.79 29.27-39.24 54.62-39.24h2.26c1.49 0 2.98.06 4.45.17-23.4 1.8-42.93 17.63-50.17 39.07z" fill="#03478b" data-original="#fce06a" class=""></path></g><g><path d="m129.43 177.76c-8.822 0-16-7.178-16-16v-22.026c0-5.784 2.382-11.477 6.535-15.62 4.06-4.05 9.36-6.278 14.928-6.278h.12c7.439 0 14.419-2.923 19.661-8.236 5.257-5.327 8.086-12.374 7.968-19.844-.238-14.99-12.912-27.186-28.253-27.186h-2.566c-11.893 0-22.425 7.583-26.209 18.87-2.158 6.438-8.232 10.763-15.114 10.763-5.231 0-9.982-2.44-13.036-6.694-3.026-4.215-3.813-9.439-2.161-14.335 8.197-24.286 30.911-40.604 56.52-40.604h2.254c33.261 0 60.432 26.638 60.568 59.38.12 28.913-20.919 53.963-49.215 58.975v12.836c0 8.821-7.178 15.999-16 15.999zm5.464-55.925c-4.502 0-8.799 1.813-12.104 5.11-3.406 3.398-5.36 8.059-5.36 12.788v22.026c0 6.617 5.383 12 12 12s12-5.383 12-12v-14.538c0-.992.727-1.834 1.709-1.979 27.197-3.998 47.62-27.762 47.506-55.276-.127-30.547-25.504-55.397-56.568-55.397h-2.254c-23.891 0-45.082 15.224-52.73 37.883-1.235 3.659-.645 7.568 1.621 10.723 2.293 3.195 5.86 5.027 9.787 5.027 5.161 0 9.71-3.229 11.321-8.034 4.331-12.919 16.388-21.599 30.002-21.599h2.566c17.512 0 31.98 13.962 32.252 31.123.135 8.551-3.104 16.618-9.12 22.716-5.999 6.081-13.991 9.427-22.508 9.427-.041 0-.082 0-.12 0z" fill="#198cff" data-original="#690589" class=""></path></g></g></g></svg>